<?xml version="1.0" standalone="no"?><!DOCTYPE svg PUBLIC "-//W3C//DTD SVG 1.1//EN" "http://www.w3.org/Graphics/SVG/1.1/DTD/svg11.dtd"><svg class="icon" width="200px" height="137.08px" viewBox="0 0 1494 1024" version="1.1" xmlns="http://www.w3.org/2000/svg"><path d="M648.857258 355.716996a27.387343 27.387343 0 0 1 3.184574-6.050692v-1.114601a37.259524 37.259524 0 0 1 5.254549-5.732235 51.430882 51.430882 0 0 1 4.617633-3.343803c1.433059-0.955372 2.54766-2.069974 4.139947-2.866117l53.500855-31.845748 3.343804-2.229202 3.184575-2.388431a25.635826 25.635826 0 0 0 2.706888-3.025346l0.796144-1.114601a17.992847 17.992847 0 0 0 1.114601-2.54766v-2.54766a15.922874 15.922874 0 0 0 0-2.547659V127.382989a15.922874 15.922874 0 0 1 0 4.458404 18.470533 18.470533 0 0 1-2.069974 4.139947 25.15814 25.15814 0 0 1-3.503032 3.980719l-3.184575 2.388431-2.866117 2.069973-53.500855 31.845748h-0.796144c-1.27383 0-2.229202 1.592287-3.343803 2.388431a51.112424 51.112424 0 0 0-4.617634 3.343803 37.73721 37.73721 0 0 0-4.139947 4.458405v2.229202l-1.433058 2.388431a26.750428 26.750428 0 0 0-1.751516 3.82149v1.27383a23.565853 23.565853 0 0 0 0 2.388431 22.451252 22.451252 0 0 0 0 3.821489v160.980252a23.088167 23.088167 0 0 1 1.114601-6.687607z" fill="#99C9F2" /><path d="M1493.406472 722.102317a18.788991 18.788991 0 0 1-2.069973 4.139947 25.476598 25.476598 0 0 1-3.503032 3.980718l-3.184575 2.388431-2.706889 1.910745-206.678899 120.854611a54.296999 54.296999 0 0 1-13.8529 5.254548h-2.229202a74.200591 74.200591 0 0 1-15.922874 1.751516 74.519048 74.519048 0 0 1-15.922873-1.910745 55.093143 55.093143 0 0 1-14.649044-5.573005L398.071999 385.651998a71.652931 71.652931 0 0 0-9.553724-4.617633h-1.592288l-5.891463-1.910745h-6.846836l-6.528378-1.114601h-37.577981l-6.528379 1.592287-3.503032 0.796144h-1.433058a73.882133 73.882133 0 0 0-12.897528 5.732234l-53.500855 31.845748a54.456228 54.456228 0 0 1-14.330586 5.573005h-1.910745a73.882133 73.882133 0 0 1-15.922874 1.592288 75.315192 75.315192 0 0 1-15.922873-2.069974 54.933914 54.933914 0 0 1-14.012129-5.413777 27.865029 27.865029 0 0 1-11.623698-11.623698L89.168251 218.939512 2.070133 32.80112A15.922874 15.922874 0 0 1 0.000159 25.795055v161.139481a15.922874 15.922874 0 0 0 1.592288 7.006064l87.098118 185.979164L175.151769 566.058156a27.865029 27.865029 0 0 0 11.623697 11.623698 47.768621 47.768621 0 0 0 6.36915 3.025346l5.573006 1.910744h38.692582l4.458405-1.114601a51.430882 51.430882 0 0 0 10.03141-4.458404l53.500856-31.845748A73.882133 73.882133 0 0 1 318.457631 541.377702l4.936091-1.592288 6.528378-1.592287 7.961437-1.433059h27.387342a104.454051 104.454051 0 0 1 10.509097 1.751517h1.910745a89.48655 89.48655 0 0 1 9.076038 2.706888h1.592287a72.130617 72.130617 0 0 1 10.03141 4.776862l813.499611 469.724771a49.042451 49.042451 0 0 0 6.528379 3.184574l5.413777 1.910745h26.909656l5.732235-0.796143H1261.091747l3.82149-0.955373a50.953195 50.953195 0 0 0 9.872181-4.299176L1480.827402 896.77624l2.229203-1.592287 3.184574-2.388431a25.795055 25.795055 0 0 0 2.866118-3.025346l0.796143-1.27383a18.470533 18.470533 0 0 0 1.27383-2.54766v-0.796144a16.719017 16.719017 0 0 0 0-1.592287 15.922874 15.922874 0 0 0 0-2.54766V720.032343a15.922874 15.922874 0 0 1 2.229202 2.069974z" fill="#99C9F2" /><path d="M720.35096 107.320168c15.922874 9.553724 18.629762 26.113513 0 36.941067l-53.500855 31.845747c-25.635826 14.808272-25.476598 39.01104 0 53.819313L1480.827402 699.01415a19.425906 19.425906 0 0 1 0 36.781838l-205.564298 119.580781a69.901415 69.901415 0 0 1-63.691494 0L398.071999 385.651998a102.384077 102.384077 0 0 0-92.989582 0l-53.500855 31.845747a70.060644 70.060644 0 0 1-63.691495 0 27.865029 27.865029 0 0 1-11.623697-11.623697L89.168251 218.939512 2.070133 32.80112C-7.005905 13.534443 23.566012-4.299176 57.163275 0.955372l321.323589 49.838595L700.606597 100.632561a58.436946 58.436946 0 0 1 19.744363 6.687607z" fill="#E0EFFB" /></svg>