<?xml version="1.0" encoding="UTF-8"?>
<svg width="56px" height="56px" viewBox="0 0 56 56" version="1.1" xmlns="http://www.w3.org/2000/svg" xmlns:xlink="http://www.w3.org/1999/xlink">
    <title>编组 3备份 20</title>
    <defs>
        <path d="M16.2566104,0.425773291 C15.3653732,-0.0888313813 14.0150104,-0.144868569 13.2431034,0.300861681 L0.520982487,7.64597796 C-0.250812841,8.09159656 -0.153919826,8.87120585 0.737428971,9.38581052 L13.6567964,16.8447873 C14.5480336,17.3593919 15.8983964,17.4154291 16.6703034,16.9696989 L29.3924243,9.62458259 C30.1643313,9.17896399 30.0673267,8.3993547 29.1760894,7.88475002 L16.2566104,0.425773291 Z" id="path-1"></path>
    </defs>
    <g id="页面-1" stroke="none" stroke-width="1" fill="none" fill-rule="evenodd">
        <g id="架构图总览" transform="translate(-845.000000, -132.000000)">
            <g id="编组-3备份-20" transform="translate(845.000000, 132.000000)">
                <rect id="矩形" x="0" y="0" width="56" height="56" rx="6"></rect>
                <g id="编组" transform="translate(13.000000, 4.000000)">
                    <g id="编组-6" transform="translate(0.079576, 30.683341)">
                        <mask id="mask-2" fill="white">
                            <use xlink:href="#path-1"></use>
                        </mask>
                        <use id="路径" fill="#53A0E6" fill-rule="nonzero" xlink:href="#path-1"></use>
                        <path d="M15.7324057,-13.0283146 C15.7324057,-13.3883219 15.5198662,-13.80716 15.2580988,-13.9630442 L0.710973143,-22.6252089 C0.274731284,-22.8850543 -0.0795756537,-22.6087455 -0.0795756537,-22.0088101 L-0.0795756537,9.03655238 C-0.0795756537,9.51652373 0.203847612,10.0750128 0.552908065,10.2829352 L13.5187127,18.0034627 C14.7404801,18.7309607 15.7324057,17.9576416 15.7324057,16.277454 L15.7324057,-13.0283146 Z" id="路径" fill="#2C6EB5" fill-rule="nonzero" mask="url(#mask-2)"></path>
                        <path d="M29.9133918,-21.7454304 C29.9133918,-21.9665855 29.7818941,-22.0684197 29.619922,-21.972643 L15.5299127,-13.6436115 C15.3679406,-13.5478348 15.2363313,-13.2905634 15.2363313,-13.0694084 L15.2363313,16.5436557 C15.2363313,17.7600657 15.9597917,18.3199824 16.8508057,17.7932104 L29.619922,10.2451364 C29.7818941,10.1493597 29.9133918,9.89197398 29.9133918,9.67081896 L29.9133918,-21.7454304 L29.9133918,-21.7454304 Z" id="路径" fill="#53A0E6" fill-rule="nonzero" mask="url(#mask-2)"></path>
                    </g>
                    <path d="M15.8119814,17.3602395 C15.8119814,17.0111791 15.5994418,16.6050767 15.3376744,16.4539325 L0.790548797,8.05516048 C0.354306937,7.80321626 0,8.07112324 0,8.65281626 L0,38.7541744 C0,39.2195511 0.283423266,39.7610581 0.632483719,39.9626581 L13.5982883,44.6850002 C14.8200558,45.3903769 15.8119814,44.6405723 15.8119814,43.0114746 L15.8119814,17.3602395 Z" id="路径" fill="#2C6EB5" fill-rule="nonzero"></path>
                    <path d="M29.9929674,8.9317744 C29.9929674,8.7157744 29.8614698,8.61631395 29.6994976,8.70985812 L15.6094883,16.8447419 C15.4475162,16.9382861 15.3159069,17.1895605 15.3159069,17.4055605 L15.3159069,46.3283512 C15.3159069,47.516407 16.0393674,48.0632721 16.9303814,47.5487791 L29.6994976,40.1766488 C29.8614698,40.0831046 29.9929674,39.8317186 29.9929674,39.6157186 L29.9929674,8.9317744 L29.9929674,8.9317744 Z" id="路径" fill="#53A0E6" fill-rule="nonzero"></path>
                    <path d="M16.336186,0.425727915 C15.4449488,-0.0888767564 14.094586,-0.144802335 13.322679,0.300816259 L0.600558141,7.64593254 C-0.171237188,8.09155113 -0.0743441719,8.87116043 0.817004625,9.3857651 L13.7363721,16.8447419 C14.6276092,17.3593466 15.9779721,17.4153837 16.749879,16.9696535 L29.472,9.62453721 C30.243907,9.17891862 30.1469023,8.39930932 29.2556651,7.88470465 L16.336186,0.425727915 Z" id="路径" fill="#A4D4FB" fill-rule="nonzero"></path>
                    <path d="M15,25.1878157 L0,16 L0,17.8123028 L15,27 L15,25.1878157 Z M30,17 L15,25.2745005 L15,27 L30,18.7256123 L30,17 L30,17 Z" id="形状" fill="#D0E2F3" fill-rule="nonzero"></path>
                    <path d="M12.3250605,30.8955698 C12.3250605,30.7953279 12.2641116,30.6787884 12.188986,30.6353651 L2.30310694,24.9278302 C2.22798136,24.884407 2.16692091,24.9305093 2.16692091,25.0307512 L2.16692091,28.2981 C2.16692091,28.3982303 2.22798136,28.5147698 2.30310694,28.558193 L12.188986,34.2658395 C12.2641116,34.3091511 12.3250605,34.2630488 12.3250605,34.1629186 L12.3250605,30.8955698 L12.3250605,30.8955698 Z M12.3250605,37.9348256 C12.3250605,37.8346954 12.2641116,37.7181559 12.188986,37.6747325 L2.30310694,31.9670861 C2.22798136,31.9237744 2.16692091,31.9698768 2.16692091,32.070007 L2.16692091,35.3373558 C2.16692091,35.4375977 2.22798136,35.5541372 2.30310694,35.5974488 L12.188986,41.3050954 C12.2641116,41.3485186 12.3250605,41.3024163 12.3250605,41.2021744 L12.3250605,37.9348256 L12.3250605,37.9348256 Z" id="形状" fill="#519DE4" fill-rule="nonzero"></path>
                    <path d="M11.655293,16.6554209 C12.0250046,16.8687419 12.3250605,17.540407 12.3250605,18.1543605 C12.3250605,18.7682023 12.0250046,19.0933744 11.655293,18.8799419 C11.285693,18.6665093 10.9855256,17.9948442 10.9855256,17.3810023 C10.9855256,16.7670489 11.285693,16.4419884 11.655293,16.6554209 Z M11.655293,19.7810023 C12.0250046,19.9943233 12.3250605,20.6659884 12.3250605,21.2799419 C12.3250605,21.8937837 12.0250046,22.2189559 11.655293,22.0055232 C11.285693,21.7920907 10.9855256,21.1204256 10.9855256,20.5065837 C10.9855256,19.8926303 11.285693,19.5675698 11.655293,19.7810023 Z" id="形状" fill="#EDEEF0" fill-rule="nonzero"></path>
                </g>
            </g>
        </g>
    </g>
</svg>